<svg xmlns="http://www.w3.org/2000/svg" width="16" height="16" fill="none" viewBox="0 0 16 16"><mask id="mask0_405_12519" style="mask-type:alpha" width="16" height="16" x="0" y="0" maskUnits="userSpaceOnUse"><path fill="#fff" d="M8 16C12.4183 16 16 12.4183 16 8C16 3.58172 12.4183 0 8 0C3.58172 0 0 3.58172 0 8C0 12.4183 3.58172 16 8 16Z"/></mask><g mask="url(#mask0_405_12519)"><path fill="#fff" d="M8 16C12.4183 16 16 12.4183 16 8C16 3.58172 12.4183 0 8 0C3.58172 0 0 3.58172 0 8C0 12.4183 3.58172 16 8 16Z"/><path stroke="#52AA59" stroke-linecap="round" stroke-linejoin="round" stroke-width="2" d="M5 8.24265L7 10.2426"/><path stroke="#52AA59" stroke-linecap="round" stroke-linejoin="round" stroke-width="2" d="M7 10.2426L11.2426 6"/></g></svg>